<?xml version="1.0" standalone="no"?><!DOCTYPE svg PUBLIC "-//W3C//DTD SVG 1.1//EN" "http://www.w3.org/Graphics/SVG/1.1/DTD/svg11.dtd"><svg t="1625197254389" class="icon" viewBox="0 0 1024 1024" version="1.1" xmlns="http://www.w3.org/2000/svg" p-id="1146" xmlns:xlink="http://www.w3.org/1999/xlink" width="200" height="200"><defs><style type="text/css"></style></defs><path d="M768.001182 298.656886c0 11.854715-4.332288 21.740207-13.036248 29.656479L572.457469 512.002363l182.507465 183.688998c8.664575 8.70396 13.036248 18.786375 13.036248 30.247245 0 11.421486-4.135366 21.306979-12.445481 29.617095-8.270731 8.270731-18.353146 12.445481-30.207861 12.445481s-22.134052-3.938443-30.838012-11.815331L512.002363 572.418084l-182.507465 183.688999c-8.664575 7.876887-18.983297 11.854715-30.838012 11.854714-11.81533 0-21.897745-4.135366-30.20786-12.445481a41.156733 41.156733 0 0 1-12.445481-30.207861c0-11.854715 4.332288-21.740207 13.036247-29.656478L451.547257 512.002363 269.039792 328.313365a38.360438 38.360438 0 0 1-13.036247-29.656479c0-11.81533 4.135366-21.897745 12.445481-30.20786 8.270731-8.270731 18.353146-12.445481 30.20786-12.445481s22.134052 3.938443 30.838012 11.81533L512.002363 451.586642l182.507465-183.688998c8.664575-7.876887 18.983297-11.854715 30.838012-11.854715 11.81533 0 21.897745 4.135366 30.207861 12.445481 8.270731 8.270731 12.445481 18.353146 12.445481 30.207861z m105.904742 575.249038a517.984071 517.984071 0 0 0 110.51272-162.933402A508.925651 508.925651 0 0 0 1024 512.002363c0-69.828601-13.58763-136.151987-40.723504-198.970159a501.954606 501.954606 0 0 0-109.370572-162.933401 517.984071 517.984071 0 0 0-162.933402-110.512721A508.925651 508.925651 0 0 0 512.002363 0.004726c-69.828601 0-136.151987 13.58763-198.970159 40.723504A501.954606 501.954606 0 0 0 150.059418 150.098803a517.984071 517.984071 0 0 0-110.512721 162.933401A508.925651 508.925651 0 0 0 0.004726 512.002363c0 69.828601 13.58763 136.151987 40.723505 198.970159a501.954606 501.954606 0 0 0 109.370572 162.933402 517.984071 517.984071 0 0 0 162.933401 110.51272C375.850376 1010.806215 442.213147 1024 512.002363 1024c69.828601 0 136.151987-13.58763 198.970159-40.723504a501.954606 501.954606 0 0 0 162.933402-109.370572z" fill="#d81e06" p-id="1147" data-spm-anchor-id="a313x.7781069.0.i3" class="selected"></path></svg>