<?xml version="1.0" standalone="no"?><!DOCTYPE svg PUBLIC "-//W3C//DTD SVG 1.1//EN" "http://www.w3.org/Graphics/SVG/1.1/DTD/svg11.dtd"><svg class="icon" width="200px" height="200.00px" viewBox="0 0 1024 1024" version="1.1" xmlns="http://www.w3.org/2000/svg"><path d="M512 512m-512 0a512 512 0 1 0 1024 0 512 512 0 1 0-1024 0Z" fill="#EF9945" /><path d="M469.230933 514.594133a231.68 231.68 0 0 0-46.165333-42.4448 250.385067 250.385067 0 0 1-104.072533-208.418133h-15.547734a23.159467 23.159467 0 0 1 0-46.1312h428.1856a23.159467 23.159467 0 0 1 0 46.1824h-15.598933a247.637333 247.637333 0 0 1-104.072533 208.384 419.447467 419.447467 0 0 0-46.165334 42.427733c14.318933 15.2576 29.764267 29.3888 46.165334 42.3936a242.210133 242.210133 0 0 1 104.106666 208.3328h15.530667a23.159467 23.159467 0 0 1 0 46.165334H303.445333a23.159467 23.159467 0 0 1 0-46.165334h15.530667a246.698667 246.698667 0 0 1 104.0896-208.3328 232.533333 232.533333 0 0 0 46.165333-42.3936zM365.226667 765.303467h19.285333l123.4432-123.4432a17.7152 17.7152 0 0 1 19.285333 0l123.392 123.460266h19.336534a204.0832 204.0832 0 0 0-88.9856-173.602133 488.328533 488.328533 0 0 1-61.303467-61.781333 482.048 482.048 0 0 1-65.877333 61.781333 204.919467 204.919467 0 0 0-88.576 173.602133z m38.621866-381.952h235.025067a191.7952 191.7952 0 0 0 34.884267-119.569067h-308.565334a190.754133 190.754133 0 0 0 38.6048 119.569067h0.0512z" fill="#FFFFFF" /></svg>