<?xml version="1.0" standalone="no"?><!DOCTYPE svg PUBLIC "-//W3C//DTD SVG 1.1//EN" "http://www.w3.org/Graphics/SVG/1.1/DTD/svg11.dtd"><svg class="icon" width="200px" height="200.00px" viewBox="0 0 1024 1024" version="1.1" xmlns="http://www.w3.org/2000/svg"><path fill="#333333" d="M512 340.7421875a31.75125 31.75125 0 0 0-31.9696875 31.4896875v210.09375c0 1.4390625 0.6975 2.70375 0.871875 4.09875 0.305625 2.311875 0.5671875 4.449375 1.3528125 6.5428125 0.740625 1.875 1.74375 3.489375 2.746875 5.1028125 1.0471875 1.7878125 2.0503125 3.489375 3.489375 5.1028125 1.483125 1.6134375 3.2278125 2.70375 5.0596875 4.186875 1.1775 0.785625 1.9621875 2.0503125 3.315 2.7046875l182.964375 97.2609375a32.01375 32.01375 0 0 0 15.1340625 3.7509375 32.01375 32.01375 0 0 0 28.175625-16.53 31.3153125 31.3153125 0 0 0-12.9975-42.7425l-166.171875-88.408125V372.231875A31.8384375 31.8384375 0 0 0 512 340.74125z m425.986875 168.0478125a31.708125 31.708125 0 0 0-31.8825 31.53375c0 214.32375-176.77125 388.60875-394.0603125 388.60875-217.3340625 0-394.06125-174.285-394.06125-388.60875 0-214.3678125 176.728125-388.6528125 394.06125-388.6528125a399.94875 399.94875 0 0 1 137.604375 25.1221875l-41.956875 11.0784375a31.4465625 31.4465625 0 0 0 8.2425 61.933125 32.23125 32.23125 0 0 0 8.2875-1.0471875l102.7125-27.1715625a52.77375 52.77375 0 0 0 32.49375-24.511875 51.4659375 51.4659375 0 0 0 5.233125-39.8634375L737.140625 55.805a31.8384375 31.8384375 0 0 0-39.1228125-22.33125A31.490625 31.490625 0 0 0 675.425 72.03125l14.04375 51.76875A466.2440625 466.2440625 0 0 0 512 88.6475c-252.530625 0-457.9565625 202.635-457.9565625 451.67625S259.469375 992 512 992c252.4875 0 457.9565625-202.635 457.9565625-451.6321875 0-17.446875-14.30625-31.5778125-31.96875-31.5778125z"  /></svg>