<?xml version="1.0" standalone="no"?><!DOCTYPE svg PUBLIC "-//W3C//DTD SVG 1.1//EN" "http://www.w3.org/Graphics/SVG/1.1/DTD/svg11.dtd"><svg class="icon" width="200px" height="200.00px" viewBox="0 0 1024 1024" version="1.1" xmlns="http://www.w3.org/2000/svg"><path d="M512.00096 1023.99808a510.719042 510.719042 0 0 1-511.99904-511.99904c0-283.711468 228.287572-511.99904 511.99904-511.99904s511.99904 228.287572 511.99904 511.99904-228.287572 511.99904-511.99904 511.99904z" fill="#FF9933" /><path d="M463.361051 752.830588V831.99844h79.167852v-79.167852H463.297051z m204.735616-273.919486c11.519978-20.863961 17.343967-43.647918 17.343968-68.415872 0-42.68792-16.447969-79.167852-49.407908-109.311795C603.008789 271.103492 558.848872 255.99952 503.552976 255.99952c-52.351902 0-94.399823 14.079974-126.207764 42.111921-31.80794 28.095947-50.879905 68.479872-57.343892 121.279773l71.487866 8.511984c6.143988-39.423926 19.199964-68.351872 39.039927-86.911837 19.839963-18.559965 44.479917-27.839948 74.111861-27.839948 30.719942 0 56.575894 10.239981 77.695854 30.719942 21.11996 20.479962 31.679941 44.223917 31.679941 71.295867 0 14.911972-3.647993 28.735946-10.87998 41.343922-7.167987 12.607976-22.847957 29.567945-46.911912 50.815905s-40.767924 37.37593-50.047906 48.447909c-12.607976 15.231971-21.759959 30.271943-27.391949 45.183915-7.679986 19.839963-11.583978 43.391919-11.583978 70.719868 0 4.607991 0.128 11.583978 0.383999 20.86396H534.400918c0.511999-27.839948 2.431995-47.93591 5.759989-60.287886 3.391994-12.351977 8.511984-23.295956 15.487971-32.831939 6.975987-9.535982 21.759959-24.319954 44.415917-44.415917 33.727937-29.887944 56.447894-55.231896 68.031872-76.159857z" fill="#FFFFFF" /></svg>