<?xml version="1.0" standalone="no"?><!DOCTYPE svg PUBLIC "-//W3C//DTD SVG 1.1//EN" "http://www.w3.org/Graphics/SVG/1.1/DTD/svg11.dtd"><svg class="icon" width="200px" height="200.00px" viewBox="0 0 1024 1024" version="1.1" xmlns="http://www.w3.org/2000/svg"><path d="M512 524.288m-499.512195 0a499.512195 499.512195 0 1 0 999.02439 0 499.512195 499.512195 0 1 0-999.02439 0Z" fill="#F94555" /><path d="M506.430439 687.178927A69.082537 69.082537 0 0 0 437.073171 756.51122a69.082537 69.082537 0 0 0 69.357268 69.357268 69.082537 69.082537 0 0 0 69.357268-69.357268 69.082537 69.082537 0 0 0-69.357268-69.357269zM491.020488 201.653073C460.200585 209.345561 437.073171 240.190439 437.073171 278.702829c0 23.127415 0 46.254829 7.717463 69.382244 7.692488 84.76722 7.692488 161.841951 15.409951 246.609171 0 30.819902 23.102439 46.229854 53.947317 46.229854 30.819902 0 53.947317-23.102439 53.947318-53.947318v-53.947317c0-53.947317 7.692488-107.894634 7.692487-161.841951 0-38.537366 7.717463-69.357268 7.717464-107.894634 0-15.409951 0-23.102439-7.717464-38.537366-15.409951-15.409951-53.947317-30.819902-84.767219-23.102439z" fill="#FFFFFF" /></svg>